<?xml version="1.0" encoding="UTF-8" standalone="no"?>
<svg
   version="1.2"
   viewBox="0 0 250 250"
   width="250"
   height="250"
   id="svg9"
   sodipodi:docname="d20R.svg"
   inkscape:export-filename="d20R-48.png"
   inkscape:export-xdpi="18.43"
   inkscape:export-ydpi="18.43"
   inkscape:version="1.2 (dc2aedaf03, 2022-05-15)"
   xmlns:inkscape="http://www.inkscape.org/namespaces/inkscape"
   xmlns:sodipodi="http://sodipodi.sourceforge.net/DTD/sodipodi-0.dtd"
   xmlns="http://www.w3.org/2000/svg"
   xmlns:svg="http://www.w3.org/2000/svg">
  <defs
     id="defs13">
    <filter
       style="color-interpolation-filters:sRGB;"
       inkscape:label="Drop Shadow"
       id="filter197"
       x="-0.18062934"
       y="-0.11446741"
       width="1.3081324"
       height="1.2766296">
      <feFlood
         flood-opacity="0.74902"
         flood-color="rgb(0,0,0)"
         result="flood"
         id="feFlood187" />
      <feComposite
         in="flood"
         in2="SourceGraphic"
         operator="in"
         result="composite1"
         id="feComposite189" />
      <feGaussianBlur
         in="composite1"
         stdDeviation="3"
         result="blur"
         id="feGaussianBlur191" />
      <feOffset
         dx="-3"
         dy="3"
         result="offset"
         id="feOffset193" />
      <feComposite
         in="SourceGraphic"
         in2="offset"
         operator="over"
         result="composite2"
         id="feComposite195" />
    </filter>
  </defs>
  <sodipodi:namedview
     id="namedview11"
     pagecolor="#ffffff"
     bordercolor="#111111"
     borderopacity="1"
     inkscape:showpageshadow="0"
     inkscape:pageopacity="0"
     inkscape:pagecheckerboard="1"
     inkscape:deskcolor="#d1d1d1"
     showgrid="false"
     inkscape:zoom="3.148"
     inkscape:cx="125.31766"
     inkscape:cy="99.74587"
     inkscape:window-width="1920"
     inkscape:window-height="974"
     inkscape:window-x="-9"
     inkscape:window-y="-9"
     inkscape:window-maximized="1"
     inkscape:current-layer="svg9" />
  <title
     id="title2">d20</title>
  <style
     id="style4">
		.s0 { opacity: .7;fill: #ff0000 } 
		.s1 { opacity: 1;fill: #ff0000 } 
		.s2 { fill: #ffffff } 
	</style>
  <path
     id="Outer"
     fill-rule="evenodd"
     class="s0"
     d="m126 14.3c0.8 0.2 13.9 7.6 29 16.3 15.1 8.8 37.5 21.8 49.8 28.9 14.4 8.4 22.4 13.7 22.8 15 0.4 1.1 0.2 28-1.1 117.5l-15 8.7c-8.3 4.7-20.2 11.6-26.5 15.3-6.3 3.7-21 12.1-32.5 18.7-11.6 6.7-22.6 12.9-28 15.6l-29.5-17c-16.2-9.4-39.1-22.6-50.8-29.4-13.7-8-21.5-13.1-21.8-14.4-0.4-1.1-0.3-28 1.1-117.6l5-2.8c2.7-1.6 10.6-6.1 17.5-10.1 6.9-4 24.6-14.3 39.5-22.8 14.8-8.6 29.7-17.1 33-18.9 3.3-1.8 6.7-3.2 7.5-3zm-63 39.2c-15.1 8.8-29.6 17.1-32.2 18.5l-4.8 2.5v114.5c14.3 8.4 34.2 19.9 53.5 31 19.2 11.2 37.1 21.6 39.7 23.1 2.7 1.6 5 2.9 5.3 2.9 0.3 0 8.3-4.4 17.7-9.8 9.5-5.4 29.7-17 44.8-25.7 15.1-8.8 29.6-17.1 32.2-18.5l4.8-2.5v-114.5c-14.3-8.4-34.3-19.9-53.5-31-19.3-11.2-37.1-21.6-39.8-23.1-2.6-1.6-5-2.9-5.5-2.9-0.4 0.1-8.4 4.5-17.7 9.9-9.4 5.4-29.4 16.9-44.5 25.6z" />
  <path
     id="Inner"
     class="s1"
     d="m122.7 22.1c1-0.1 1.3 3 1.3 12.4 0 6.9-0.2 12.5-0.5 12.5-0.3 0-5.8 1.5-12.3 3.4-6.4 1.9-22.1 6.5-34.7 10.1-12.7 3.7-27.5 8-33 9.6-5.5 1.5-10.1 2.7-10.3 2.6-0.1-0.1 4.1-2.8 9.5-5.9 5.4-3.1 18.8-10.7 29.8-16.9 11-6.2 26.5-14.9 34.5-19.5 8-4.5 15.1-8.2 15.7-8.3zm5.2 0.4c0.9 0.3 14.9 8.2 31.1 17.4 16.2 9.3 35.3 20.1 42.5 24.1 7.1 4.1 12.5 7.5 12 7.7-0.6 0.2-4.8-0.7-9.5-2.1-4.7-1.3-20.9-6.1-36-10.6-15.1-4.5-30.8-9.2-42-12.5l0.1-12.4c0.2-10.8 0.4-12.2 1.8-11.6zm-99.5 55.5c0.2 0.3 3.2 9.9 6.6 21.5 3.4 11.5 7.2 24.4 8.5 28.5 1.3 4.1 4.2 14 6.6 22 2.3 8 4.3 14.8 4.5 15.2 0.2 0.5-5.1 4.6-11.9 9.1-6.7 4.6-12.8 8.7-13.5 9-0.9 0.6-1.2-10.3-1.2-52.6 0-29.2 0.1-53 0.4-52.7zm193.3 52.5c0.2 29.1 0 53.1-0.2 53.2-0.3 0.2-6.4-3.8-13.5-8.7-9.9-6.8-12.9-9.4-12.5-10.8 0.2-0.9 1.4-4.9 2.5-8.7 1.2-3.9 3.6-12.2 5.5-18.5 1.9-6.3 6.2-20.7 9.5-32 3.4-11.3 6.6-22.1 7.3-24 1-2.8 1.2 6.8 1.4 49.5zm-97.4 37.5c40.3 0 65.6 0.4 65.4 0.9-0.1 0.5-12.6 14.8-27.7 31.7-15.1 16.9-29.5 33.1-32 36-2.5 2.9-4.8 5.3-5.3 5.3-0.4 0.1-11.2-11.7-24-26.1-12.7-14.4-26.8-30.3-31.2-35.3-4.4-4.9-8.7-9.8-9.5-10.8-1.4-1.6 1.8-1.7 64.3-1.7zm-3.8-117.9c0.6-0.1 1 0.3 1 0.7 0 0.5-14.6 26.1-32.5 56.9-17.9 30.9-32.8 55.9-33.1 55.5-0.4-0.4-2.8-8.1-5.5-17.2-2.6-9.1-8.2-28.4-12.4-43-5.3-18-7.4-26.7-6.6-27.1 0.6-0.4 16.4-5 35.1-10.4 18.7-5.4 38.3-11 43.5-12.6 5.2-1.5 10-2.8 10.5-2.8zm7.2-0.1c0.4 0 20.4 5.6 44.3 12.5 23.9 6.8 44.2 12.8 45.1 13.2 1.4 0.7 0.9 3.4-4.8 22.8-3.5 12.1-9.1 31.4-12.5 43-3.3 11.5-6.3 21.3-6.7 21.7-0.3 0.4-4.5-6.1-9.4-14.5-4.8-8.3-12.9-22.4-18-31.2-5.1-8.8-15.4-26.6-22.9-39.5-7.4-12.9-14.1-24.5-14.7-25.8-0.7-1.2-0.9-2.2-0.4-2.2zm-2.6 1.8c0.4 0.4 4.5 7.2 9.1 15.2 4.6 8 12.9 22.4 18.5 32 5.5 9.6 16.1 27.8 23.3 40.5 7.3 12.6 13.5 23.6 13.6 24.2 0.3 1-13.2 1.3-65.1 1.3-36 0-65.5-0.2-65.5-0.5 0-0.3 2.8-5.3 6.3-11.3 3.5-5.9 11-18.8 16.7-28.7 5.7-9.9 14-24.3 18.5-32 4.5-7.7 11.7-20.2 16-27.7 4.4-7.6 8.2-13.4 8.6-13zm-69.6 117.4l4.4 4.6c2.4 2.6 12.3 13.4 22 24.1 9.7 10.7 22 24.3 27.3 30.3 5.4 5.9 9.7 11 9.5 11.3-0.1 0.3-19.1-10.6-42.2-24.2-23.1-13.5-43.2-25.3-44.7-26.2-1.6-0.9-2.8-1.8-2.8-2.1 0-0.3 6-4.4 13.3-9.2zm138.8 0.9c0.7 0 6.9 3.8 13.9 8.5 7 4.6 12.7 8.6 12.5 8.8-0.1 0.2-8.3 5.1-18.2 10.9-9.9 5.8-29.5 17.3-43.5 25.5-14 8.3-26.4 15.4-27.5 15.9-1.1 0.4 1.6-3.3 6-8.2 4.4-4.9 12.5-13.9 18-20 5.5-6 16.2-17.9 23.8-26.2 7.6-8.4 14.4-15.2 15-15.2z" />
  <path
     id="R - Rapscallion - W"
     class="s2"
     aria-label="R"
     d="m106 123.8l1.8-0.6v-1.9q0.6 0.1 3 0.1-0.3-0.7-1.6-1.3-1.4-0.7-1.4-2v-3.5q0-1.1 1.7-2.2-0.1-0.1-0.3-0.3l-1.4-1.5v-6.9q-0.4-0.3-0.8-0.3-0.6 0-1.8 0.7-1.3 0.6-1.7 0.6-0.7 0.6-0.7 1.3 0.8 0 2.2 0.8 0 1.8-1.1 2-2.3 0.6-3.1-1.3 0-0.4-0.4-0.9-0.3-0.7-0.3-0.8 0-0.4 0.3-0.5 1.8-3.3 4-2.9 0.1-0.8 1.3-1.5 1-0.6 1.9-1.1 0.3-0.8 1.7-1.2 1.5-0.6 1.5-1.4 1.6-1.4 4.4-3.6 1 0.2 2.1 2.1 0-0.9-0.2 1.3-0.3 2.1-0.2 2.2 0.2-0.4 1.1-1.5 1-1.2 1.3-1.1 1.4 1.8 4.7 1.5 3-0.7 2.2-0.7 0.7 0 1.1 0.5 0.3-0.5 0.7-1.4 0.6 0 1.6-0.4 1.2-0.4 1.6-0.4 1.7-1 4.9-3.1 1.1 0.4 1.4 0.5 0.5 0.5 0.6 1.2 0 0.4-0.5 0.8-1.1-0.5-1.6-0.4l-0.5 0.5q1.2 1.6 2.9 5-0.1 0.2-0.5 0.2-0.6 0-0.7 0.2 1.2 1.8 2.8 1.9 0 0.1 2.4 4.1 1.5 2.3 1.8 4.3-0.2 0.1-0.7 0.4-0.6 0.1-0.6 0.4 0 0.1 0.1 0.3 0.1 0.5 0.7 0.6 0.7 0.1 0.8 0.4 0.5 3.9-2.9 7-0.1-0.1-0.3-0.1-0.1 0-0.4 0.1-0.5 0.2-0.5-0.2-0.8 1.4-4.3 4 1.5 0.5 7.4 0.7 0.3 0.1 0.2 0.5-0.1 0.8-0.3 0.9-0.2 0.2-1 0.1-1 0-1 0.8v1.8q0 0.9 0.7 1.3 0 0.6-0.3 0.7 0.4 0.8 0.5 1.7l-0.9 1.1h1.6q1.5 2.8 1.5 3.9 3.5 1.9 4.7 1.9 0.8-0.7 2-2.6 0.2-0.5 1.6-0.7 0.1 0.6 0.2 1.8-0.9 0.7-2.5 2.1-1.5 1.4-1.8 2.9l-0.7 0.3q0.2 0.4 0.2 0.8 0 0.5-0.4 1.4-0.4 0.9-0.4 1.1-0.5 1.4-1.4 4.3-0.2 0-5.4-1.7-0.6-0.4-1.6-1.4l0.2-1.3q-0.3-0.2-0.8 0.1-0.5 0.3-0.7 0.3-3.8-2.3-3.8-7.6 0-0.2 0.3-0.7 0.4-0.5 0.4-0.6 0-0.2-0.3-0.4-0.5 0.3-1.5 0.4-0.5-1.3-0.9-3.3l0.5-0.6q-0.8-0.4-1.4-2-0.6-1.7-1.2-2.1 0-0.3 0.2-0.7 0.2-0.5 0.2-0.8 0-0.2-0.5-0.4-0.5 0.2-1.1 0.6-0.6 0.3-1.3 0-2.8-1.8-6.1-1.8-1.1 0-2.3 0.3v2.8q-0.1 0.1-0.7 0.4-0.2-0.2-0.6 0.5l-0.3 0.8q1.1 0.4 1.4 0.7 0.2 0.2 0.2 1.4 0 5 0.7 5.4 0.1 0 0.2-0.1 0.3 0.4 1.4 0.4 0.4-0.2 1.1-1 0.7-0.8 1.3-0.7 0.4 0 0.9 0.6v0.4q-2.3 3.3-2.5 3.5-1.6 2.4-1.7 3.8-0.6 0-1.2 1.9-0.1 0.1-0.9 1.5-0.6 1-1.1 0.8-1.9-1.5-1.9-2.3 0-0.6 0.4-1.1 0-0.1-0.7-0.3-0.5-0.1-0.6 0.1l-0.6 0.5q-1.3-0.9-3-2.8 0.5-0.9 0.5-1.1l-0.8-1.2q-0.8 2-1.6 1.6-0.4-0.4-0.9-0.4-0.5 0-1.5 0.3-1.1 0.2-1.5 0.2-0.5 0-0.8-0.1 0.1-0.4-0.4-0.8-0.5-0.4-0.8-0.4-0.7 0-0.7 2-1.8 0.4-3 4-0.3 0.6 0 2.1 0.3 0.9 0.9 2.1 0.3-0.6 1.3-2.1 0.4-0.3 2.3-0.9 0.5 0.5 1.7 1.4 0.1 0.6-0.4 1.4-0.2 0-0.5-0.4-0.1-0.5-0.5-0.5l-0.9 0.2-0.6 1.3q-0.5 0.5-0.5 1.2 0 0.2 0.1 0.6 0.1 0.4 0.1 0.5 0 0.4-0.5 0.4-0.4 0-1.1-0.1-4.6-3.4-4-7.6 0.2 0 0.8-0.4 0.6-0.5 0.6-0.7 0-0.1-0.1-0.3l-1.1-0.6q0.4-2 2-4.4 1.6-2.4 3.2-3.3 1.1-0.8 4-1.4 0.6 0.1 1-0.1 0.5-0.4 0.7-0.4 0-2.6 0.1-3.1 0.2-0.9 1.3-1.3 0.1-0.4-0.6-0.5-0.6-0.2-0.6-0.7l-0.2-4.8q-0.2 0.2-2.1 0.2-1.5 0-2 1 1.5 0.4 2.1 1.6-0.5 1.6-1.6 1.6-0.9 0-2.7-2 0.5-3 4.6-4.4zm13.3-0.6l4.8-0.3q5.1-0.3 7.1-3.9 0.6 0 1.5-0.7-1-1.3-1-1.6 0.8-2.1-0.3-4.5-0.9-0.4-0.9-1.3 0-2.7 0.2-2.1-0.7-0.4-1-0.2-0.8 0.3-1.7-0.4-0.1-0.7-1-2-0.8-1.3-0.8-2.1 0-0.6 0.2-0.9-0.2 0.2-0.4 0.2-0.2-0.1-0.4-0.1 0 0-0.1 0.1-0.7-0.6-0.8-1-0.5-1.4-2.7-1.4-1.9 0-2.7 1.1 0 2.5-0.4 7.6-0.6 0.9-1.9 0.4l1.9 1.6v4.6q-0.3 1.5-1.9 2.3 1.8 0.2 1.9 2.4 0.2 2.1 0.4 2.2z"
     style="filter:url(#filter197)" />
</svg>
