<?xml version="1.0" standalone="no"?>
<!DOCTYPE svg PUBLIC "-//W3C//DTD SVG 20010904//EN"
 "http://www.w3.org/TR/2001/REC-SVG-20010904/DTD/svg10.dtd">
<svg version="1.0" xmlns="http://www.w3.org/2000/svg"
 width="700.000000pt" height="700.000000pt" viewBox="0 0 700.000000 700.000000"
 preserveAspectRatio="xMidYMid meet">
<metadata>
Created by potrace 1.14, written by Peter Selinger 2001-2017
</metadata>
<g transform="translate(0.000000,700.000000) scale(0.100000,-0.100000)"
fill="#000000" stroke="none">
<path d="M3350 6844 c-80 -46 -152 -88 -160 -93 -77 -47 -402 -231 -409 -231
-5 0 -11 -4 -13 -8 -1 -4 -50 -34 -108 -67 -58 -32 -244 -139 -415 -238 -383
-222 -436 -253 -1309 -756 -165 -95 -314 -184 -330 -198 -69 -57 -67 -43 -73
-465 -8 -532 -8 -2624 0 -2788 8 -165 18 -202 60 -234 33 -24 353 -218 532
-321 55 -31 116 -67 135 -80 28 -18 311 -182 460 -267 115 -66 1181 -685 1210
-703 19 -12 42 -25 50 -28 8 -4 31 -17 50 -28 29 -18 432 -254 451 -265 3 -2
66 31 140 72 74 42 159 89 189 106 30 17 165 94 300 171 135 77 265 151 290
165 25 14 62 36 82 49 21 12 40 23 43 23 3 0 24 12 48 27 23 14 67 40 97 56
30 16 62 35 70 42 8 7 20 14 25 16 9 4 204 114 245 139 57 35 154 91 200 117
30 17 154 88 275 158 121 70 240 139 265 153 25 14 128 73 230 132 102 58 226
130 276 158 107 61 162 103 187 142 16 26 19 64 24 357 8 471 8 2727 0 2862
-7 109 -18 173 -34 197 -17 23 -575 354 -1403 832 -195 112 -470 271 -610 352
-140 81 -273 158 -295 170 -22 12 -92 53 -155 89 -279 163 -467 271 -471 270
-2 0 -69 -38 -149 -85z m304 -73 c78 -43 157 -88 176 -99 81 -45 567 -326 712
-410 86 -50 172 -100 190 -110 18 -11 90 -52 158 -92 69 -40 144 -83 167 -96
58 -33 265 -152 283 -164 8 -5 56 -32 105 -61 50 -29 182 -106 295 -172 113
-66 214 -126 225 -132 11 -6 46 -26 78 -45 32 -19 66 -39 75 -45 10 -5 74 -45
144 -88 l126 -77 0 -1693 0 -1693 -46 -24 c-57 -30 -144 -79 -362 -202 -153
-87 -187 -106 -240 -136 -25 -14 -57 -33 -72 -43 -14 -11 -28 -19 -31 -19 -4
0 -319 -180 -635 -364 -68 -39 -140 -80 -160 -92 -20 -11 -208 -119 -417 -239
-385 -221 -649 -372 -829 -473 l-98 -55 -52 26 c-28 14 -62 33 -76 42 -14 8
-110 64 -215 123 -104 60 -277 159 -383 221 -106 61 -207 120 -225 130 -17 10
-162 94 -322 186 -159 92 -328 189 -375 216 -47 27 -92 54 -100 59 -8 5 -32
19 -52 30 -142 77 -966 564 -1055 623 l-31 21 0 1685 c0 927 2 1691 5 1698 3
7 9 13 13 13 7 0 87 44 372 202 25 15 64 38 87 52 22 14 43 26 45 26 2 0 44
23 93 51 48 28 104 61 123 71 19 11 170 98 335 193 165 95 317 182 337 193 20
12 144 83 275 158 501 290 1020 588 1073 617 30 17 69 39 85 49 17 10 36 18
44 18 8 0 78 -36 155 -79z"/>
<path d="M3295 6637 c-147 -78 -366 -197 -380 -207 -5 -4 -167 -97 -360 -205
-348 -197 -388 -219 -560 -316 -49 -27 -97 -54 -105 -59 -33 -21 -192 -110
-196 -110 -3 0 -30 -16 -60 -35 -30 -19 -56 -35 -59 -35 -3 0 -327 -184 -582
-331 -73 -42 -164 -102 -160 -105 6 -6 308 76 697 189 179 53 411 120 515 150
105 31 231 67 280 82 50 15 97 28 105 30 8 2 224 64 480 139 256 74 484 139
506 145 34 9 43 16 47 39 9 43 2 655 -7 675 -4 9 -16 17 -25 17 -9 0 -70 -29
-136 -63z"/>
<path d="M3555 6685 c-3 -8 -8 -23 -11 -32 -3 -10 -8 -162 -11 -338 l-6 -321
214 -63 c118 -35 241 -72 274 -82 33 -10 168 -50 300 -89 132 -39 254 -76 270
-81 17 -5 100 -30 185 -55 85 -25 277 -81 425 -125 659 -195 849 -246 877
-236 12 3 -102 83 -191 133 -18 10 -41 24 -50 29 -30 19 -477 273 -613 349
-114 63 -148 82 -238 134 -52 30 -113 65 -135 77 -22 12 -114 64 -205 117 -91
52 -187 107 -215 122 -27 16 -167 94 -310 176 -143 81 -282 159 -310 175 -27
15 -77 42 -110 61 -33 18 -77 40 -98 49 -33 14 -38 14 -42 0z"/>
<path d="M3250 5859 c-58 -16 -112 -31 -120 -33 -8 -2 -103 -30 -210 -61 -107
-31 -265 -76 -350 -101 -85 -24 -168 -48 -185 -54 -16 -5 -118 -34 -225 -65
-369 -106 -835 -241 -1030 -299 -290 -85 -354 -106 -360 -117 -4 -6 -6 -19 -4
-28 2 -9 10 -52 19 -96 25 -123 55 -241 105 -405 17 -58 33 -112 35 -120 2 -8
38 -134 80 -280 42 -146 83 -287 90 -315 7 -27 26 -90 40 -140 26 -85 43 -145
85 -295 91 -323 243 -819 260 -849 6 -11 11 -9 23 10 126 200 621 1031 750
1259 17 30 151 261 322 555 132 225 351 605 378 655 16 30 33 60 37 65 4 6 19
30 33 55 13 25 51 90 82 145 32 55 69 120 83 145 14 25 50 90 82 145 133 235
142 256 102 254 -9 0 -64 -14 -122 -30z"/>
<path d="M3570 5880 c0 -17 52 -114 170 -320 62 -107 122 -211 133 -230 10
-19 70 -123 132 -230 62 -107 122 -211 133 -230 11 -19 99 -172 197 -340 98
-168 189 -325 203 -350 13 -25 28 -49 32 -55 4 -5 17 -26 27 -45 19 -33 248
-431 455 -790 53 -91 106 -183 118 -205 97 -173 289 -477 309 -490 15 -8 59
132 268 850 41 143 98 337 125 430 27 94 63 217 79 275 17 58 34 119 40 135
57 179 193 677 205 752 8 46 8 54 5 88 0 8 -16 18 -33 24 -18 5 -123 36 -233
69 -110 33 -398 117 -640 187 -242 69 -469 135 -505 145 -161 48 -690 198
-1020 290 -19 5 -67 19 -106 30 -81 23 -94 24 -94 10z"/>
<path d="M3480 5818 c-47 -50 -274 -433 -780 -1313 -34 -60 -505 -874 -593
-1025 -49 -85 -98 -171 -109 -190 -11 -19 -100 -172 -198 -340 -188 -323 -224
-389 -217 -397 10 -9 532 -13 1842 -13 1551 1 1934 6 1954 26 6 6 -51 120
-105 214 -18 30 -77 134 -131 230 -55 96 -132 231 -171 299 -40 68 -72 125
-72 128 0 2 -16 29 -35 59 -19 30 -35 56 -35 58 0 4 -150 266 -170 296 -5 8
-27 47 -48 85 -22 39 -81 142 -132 230 -51 88 -100 174 -110 190 -9 17 -157
271 -327 566 -171 294 -321 555 -335 580 -33 57 -177 298 -193 322 -12 18 -14
17 -35 -5z"/>
<path d="M678 5020 c-7 -83 -1 -2823 7 -2914 3 -44 9 -85 13 -93 6 -9 57 20
185 107 359 241 497 340 544 388 19 19 21 27 12 50 -6 15 -28 88 -49 162 -49
170 -124 424 -284 955 -70 231 -136 452 -147 490 -12 39 -27 90 -35 115 -7 25
-43 146 -79 270 -36 124 -75 252 -85 285 -11 33 -33 101 -49 150 l-28 90 -5
-55z"/>
<path d="M6280 4997 c0 -4 -21 -74 -46 -155 -25 -81 -63 -205 -85 -277 -21
-71 -65 -220 -97 -330 -33 -110 -95 -317 -137 -460 -43 -143 -106 -354 -140
-470 -154 -517 -207 -701 -212 -724 -2 -14 -6 -27 -8 -30 -16 -15 79 -101 245
-221 107 -77 500 -340 509 -340 10 0 10 14 11 955 1 1388 -8 2007 -30 2044 -5
9 -10 12 -10 8z"/>
<path d="M1849 2446 c-2 -2 -51 -6 -109 -9 -101 -5 -140 -12 -140 -26 0 -6 79
-99 149 -176 20 -22 104 -116 186 -210 82 -93 151 -172 154 -175 3 -3 35 -39
71 -80 35 -41 78 -90 95 -108 51 -55 66 -73 175 -197 57 -66 121 -138 141
-160 20 -22 110 -123 200 -225 90 -102 168 -190 174 -196 5 -6 44 -49 85 -95
147 -164 286 -315 360 -392 41 -43 77 -82 78 -88 13 -34 64 10 232 201 41 47
89 101 106 120 17 19 55 62 84 95 29 33 67 76 84 95 17 19 107 120 200 225 93
104 201 226 240 269 39 43 78 87 86 96 8 9 44 50 80 90 36 40 72 81 80 90 34
38 136 154 155 174 11 13 36 40 55 62 20 21 80 91 135 154 55 63 105 120 111
125 5 6 39 44 75 85 35 41 66 77 69 80 3 3 28 32 55 65 28 33 53 62 58 63 4 2
7 10 7 18 0 10 -14 14 -52 15 -29 0 -93 3 -143 6 -108 5 -3331 14 -3336 9z"/>
<path d="M1390 2361 c-642 -419 -696 -457 -679 -477 10 -12 152 -99 279 -171
35 -20 414 -242 1187 -696 221 -130 422 -247 445 -260 24 -14 181 -104 351
-201 342 -197 344 -198 329 -170 -11 21 -124 155 -232 274 -37 41 -174 194
-305 340 -131 146 -261 290 -289 320 -28 31 -80 89 -116 129 -36 40 -76 85
-90 100 -26 28 -198 216 -215 235 -33 37 -216 238 -252 276 -23 25 -51 56 -63
70 -49 57 -263 280 -269 280 -3 0 -40 -22 -81 -49z"/>
<path d="M5440 2317 c-128 -125 -285 -291 -507 -537 -17 -19 -41 -46 -52 -59
-11 -13 -60 -67 -109 -120 -77 -83 -308 -337 -451 -497 -25 -28 -78 -86 -118
-130 -39 -43 -81 -90 -93 -104 -12 -14 -40 -45 -64 -70 -157 -167 -372 -427
-362 -438 6 -5 106 51 476 266 146 85 279 162 295 172 17 9 91 53 165 97 74
44 149 88 165 97 17 9 46 26 65 37 19 12 154 91 300 177 436 256 1096 646
1120 663 23 15 23 15 -56 73 -175 128 -668 446 -691 446 -4 0 -42 -33 -83 -73z"/>
</g>
</svg>
