<?xml version="1.0" standalone="no"?>
<!DOCTYPE svg PUBLIC "-//W3C//DTD SVG 20010904//EN"
 "http://www.w3.org/TR/2001/REC-SVG-20010904/DTD/svg10.dtd">
<svg version="1.0" xmlns="http://www.w3.org/2000/svg"
 width="600.000000pt" height="600.000000pt" viewBox="0 0 600.000000 600.000000"
 preserveAspectRatio="xMidYMid meet">
<metadata>
Created by potrace 1.14, written by Peter Selinger 2001-2017
</metadata>
<g transform="translate(0.000000,600.000000) scale(0.100000,-0.100000)"
fill="#000000" stroke="none">
<path d="M2940 5627 c-31 -13 -130 -65 -220 -117 -229 -130 -1187 -682 -1645
-947 -209 -121 -408 -235 -441 -254 l-62 -33 -6 -196 c-10 -329 -28 -1996 -24
-2325 l3 -309 57 -46 c85 -68 292 -192 1118 -670 415 -240 870 -503 1010 -585
l255 -147 95 48 c102 53 842 475 1500 856 223 129 505 292 626 362 l222 127 6
222 c9 331 26 1787 26 2223 l0 381 -37 30 c-105 82 -270 182 -1094 661 -1053
610 -1286 742 -1315 742 -10 0 -44 -11 -74 -23z m743 -441 c921 -534 1388
-804 1554 -900 l142 -81 1 -1376 0 -1376 -157 -88 c-87 -48 -286 -162 -443
-253 -473 -274 -1650 -947 -1724 -985 -57 -29 -73 -34 -90 -25 -12 6 -298 172
-636 368 -338 196 -691 401 -785 455 -93 54 -340 197 -548 317 l-377 220 0
1377 0 1377 53 26 c56 27 153 83 1337 764 889 512 980 564 998 564 8 0 312
-173 675 -384z"/>
<path d="M2834 5414 c-201 -105 -1858 -1044 -1965 -1113 -59 -39 -61 -42 -29
-35 35 6 612 171 1210 345 173 50 450 131 615 178 l300 87 0 287 c0 191 -4
290 -11 297 -7 7 -42 -6 -120 -46z"/>
<path d="M3043 5448 c-4 -7 -9 -137 -11 -289 l-4 -275 684 -203 c1185 -353
1391 -411 1404 -398 9 9 -198 134 -571 345 -203 115 -552 313 -775 439 -499
283 -697 393 -709 393 -6 0 -13 -6 -18 -12z"/>
<path d="M2856 4788 c-22 -4 -139 -37 -260 -72 -122 -36 -511 -148 -866 -251
-355 -102 -712 -207 -795 -231 -82 -25 -158 -48 -168 -51 -16 -4 -18 -11 -12
-51 12 -87 63 -274 269 -987 212 -737 302 -1034 316 -1048 4 -5 32 31 62 80
313 505 1508 2568 1508 2601 0 17 -12 19 -54 10z"/>
<path d="M3060 4790 c0 -6 7 -25 16 -43 27 -51 314 -552 624 -1087 158 -272
374 -646 480 -830 303 -526 433 -740 450 -740 11 0 48 118 235 761 294 1006
346 1193 352 1261 l6 66 -99 31 c-233 71 -1454 423 -1844 531 -102 28 -193 53
-202 56 -10 3 -18 0 -18 -6z"/>
<path d="M2968 4718 c-57 -80 -122 -191 -544 -920 -246 -425 -510 -881 -587
-1013 -336 -578 -419 -726 -413 -732 11 -12 2400 -15 2763 -5 188 6 346 13
352 17 15 8 12 14 -327 605 -736 1285 -1200 2080 -1212 2080 -5 0 -19 -15 -32
-32z m323 -948 c10 -6 19 -20 19 -31 0 -18 -4 -20 -25 -15 -33 8 -32 -2 7 -71
21 -38 28 -58 20 -61 -21 -7 -13 -21 26 -46 26 -17 49 -46 80 -103 47 -90 49
-100 25 -118 -15 -11 -15 -13 5 -24 25 -13 29 -51 11 -98 -12 -33 -57 -83 -75
-83 -17 0 -106 -84 -98 -93 4 -4 26 -7 48 -7 73 0 117 -11 114 -28 -2 -9 -14
-19 -28 -22 -28 -7 -30 -28 -12 -108 6 -27 6 -45 0 -48 -5 -4 0 -11 13 -18 12
-6 29 -30 38 -53 12 -35 23 -45 62 -63 51 -21 69 -25 69 -12 0 12 58 72 69 72
6 0 11 -11 11 -25 0 -16 -13 -34 -39 -56 -22 -17 -45 -44 -51 -60 -7 -16 -17
-29 -22 -29 -5 0 -7 -4 -3 -9 8 -14 -48 -171 -61 -171 -18 0 -126 39 -140 51
-8 6 -14 20 -14 31 0 12 -6 19 -17 17 -31 -4 -53 12 -77 55 -29 51 -40 109
-26 136 9 17 8 20 -13 20 -25 0 -36 21 -37 65 0 11 -11 43 -25 70 -13 28 -25
60 -25 73 0 25 -4 26 -29 13 -12 -7 -30 -3 -62 11 -28 13 -67 21 -109 22 l-65
1 -3 -35 c-2 -19 -10 -39 -18 -43 -18 -10 -18 -27 1 -41 11 -8 18 -36 22 -84
8 -99 25 -110 95 -60 13 10 20 10 29 1 9 -9 3 -23 -23 -61 -20 -26 -51 -80
-71 -119 -63 -126 -70 -132 -105 -88 -12 15 -18 34 -15 46 5 19 3 21 -23 15
-24 -5 -35 -1 -58 23 -16 16 -26 36 -23 44 3 8 1 20 -4 28 -8 12 -10 12 -18
-1 -14 -21 -129 -25 -152 -4 -15 14 -18 12 -37 -18 -12 -18 -31 -45 -42 -59
-26 -31 -37 -98 -21 -128 l12 -22 29 31 c15 16 36 30 47 30 29 -1 56 -27 49
-46 -5 -13 -9 -15 -18 -6 -7 7 -15 12 -20 12 -11 0 -38 -56 -38 -80 0 -45 -67
-10 -105 55 -29 49 -33 102 -7 121 16 12 16 13 -1 26 -17 13 -16 17 13 75 38
75 94 126 158 143 26 6 52 13 58 15 6 2 14 23 18 46 4 24 12 49 18 57 9 10 9
15 0 21 -6 3 -12 33 -14 66 -3 67 -16 77 -72 55 l-28 -10 26 -21 c21 -17 24
-24 16 -40 -24 -43 -108 1 -90 47 12 30 65 72 110 85 32 10 40 17 40 36 0 19
5 23 33 23 l32 1 -33 27 c-30 25 -32 31 -32 88 0 42 5 65 15 74 8 7 15 18 15
25 0 7 -7 18 -15 25 -11 9 -15 34 -15 97 0 98 -5 103 -73 73 -53 -24 -58 -35
-22 -52 37 -17 31 -50 -11 -60 -28 -7 -51 7 -70 44 -15 29 -15 31 14 66 16 20
37 39 48 42 26 7 131 82 212 152 37 32 71 58 76 58 25 0 46 -35 46 -77 l0 -44
23 27 c23 26 24 27 51 9 22 -15 40 -17 99 -12 45 4 76 12 82 21 6 8 27 17 47
21 19 4 62 24 94 46 68 45 60 42 85 29z"/>
<path d="M2872 3558 c-8 -8 -12 -45 -12 -99 0 -77 -3 -90 -20 -102 -18 -12
-18 -15 -5 -20 21 -9 21 -134 0 -164 -13 -18 -13 -23 -1 -33 8 -6 17 -29 21
-51 l7 -39 64 0 c97 0 151 17 196 62 21 21 43 38 49 38 7 0 8 7 4 18 -4 9 -8
40 -9 69 -1 33 -8 58 -19 71 -9 10 -17 32 -17 49 0 25 -5 31 -28 36 -20 4 -33
17 -50 52 -12 25 -22 52 -22 60 0 8 -7 15 -15 15 -8 0 -15 4 -15 9 0 35 -99
58 -128 29z"/>
<path d="M677 3730 c-13 -742 -2 -2087 17 -2118 5 -8 47 15 129 70 218 145
432 297 459 325 l27 28 -39 130 c-250 838 -562 1878 -573 1910 -12 35 -14 0
-20 -345z"/>
<path d="M5287 4050 c-10 -24 -157 -511 -387 -1287 -171 -578 -209 -716 -200
-732 14 -28 117 -109 290 -228 193 -133 302 -203 319 -203 12 0 13 180 8 1188
-6 1083 -11 1306 -30 1262z"/>
<path d="M1720 1960 c-151 -4 -276 -8 -278 -9 -2 0 -2 -7 0 -15 5 -22 1186
-1355 1475 -1665 48 -52 74 -73 85 -68 9 3 101 101 205 218 103 117 321 362
483 544 352 394 629 708 765 865 l99 115 -95 7 c-145 10 -2428 17 -2739 8z"/>
<path d="M1007 1724 c-170 -113 -307 -210 -305 -216 7 -21 2124 -1256 2134
-1245 10 10 -212 260 -936 1057 -444 489 -558 610 -574 610 -6 0 -150 -93
-319 -206z"/>
<path d="M4542 1804 c-112 -114 -515 -554 -1046 -1144 -237 -263 -351 -398
-342 -407 7 -7 531 297 1801 1045 343 202 340 199 323 219 -15 19 -482 329
-561 373 l-59 32 -116 -118z"/>
</g>
</svg>
